<svg viewBox="0 0 500 700" fill="none" xmlns="http://www.w3.org/2000/svg" role="img" aria-label="Arte da carta indisponível">
  <rect width="500" height="700" rx="24" fill="#f2efea" />
  <rect x="14" y="14" width="472" height="672" rx="16" fill="none" stroke="#4c061d" stroke-opacity="0.15" stroke-width="2" />

  <rect x="38" y="38" width="424" height="52" rx="8" fill="#4c061d" fill-opacity="0.08" />

  <rect x="38" y="110" width="424" height="330" rx="8" fill="#4e6e58" fill-opacity="0.18" />
  <circle cx="250" cy="240" r="58" fill="#d17a22" fill-opacity="0.35" />
  <path d="M38 440v-78l108-92 100 86 86-70 130 118v36a8 8 0 0 1-8 8H46a8 8 0 0 1-8-8Z" fill="#4e6e58" fill-opacity="0.4" />

  <rect x="38" y="470" width="424" height="16" rx="8" fill="#4c061d" fill-opacity="0.1" />
  <rect x="38" y="506" width="360" height="16" rx="8" fill="#4c061d" fill-opacity="0.1" />
  <rect x="38" y="542" width="392" height="16" rx="8" fill="#4c061d" fill-opacity="0.1" />
  <rect x="38" y="578" width="300" height="16" rx="8" fill="#4c061d" fill-opacity="0.1" />
  <rect x="38" y="614" width="248" height="16" rx="8" fill="#4c061d" fill-opacity="0.1" />
</svg>
